HIERARCHY
ROOT Hips
{
	OFFSET 0.000000 0.000000 0.000000
	CHANNELS 6 Xposition Yposition Zposition Zrotation Yrotation Xrotation 
	JOINT LeftUpLeg_virtual
	{
		OFFSET 0.000000 0.000000 0.000000
		CHANNELS 3 Zrotation Yrotation Xrotation
		JOINT LeftUpLeg
		{
			OFFSET 10.205400 -3.823500 0.155100
			CHANNELS 3 Zrotation Yrotation Xrotation
			JOINT LeftLeg
			{
				OFFSET 0.708757 -12.982077 0.567790
				CHANNELS 3 Zrotation Yrotation Xrotation
				JOINT LeftFoot
				{
					OFFSET -0.708756 -10.717838 -2.184338
					CHANNELS 3 Zrotation Yrotation Xrotation
					JOINT LeftToeBase
					{
						OFFSET 0.108149 -7.191104 7.560241
						CHANNELS 3 Zrotation Yrotation Xrotation
						End Site
						{
							OFFSET 0.000000 0.000000 0.000000
						}
					}
				}
			}
		}
	}
	JOINT RightUpLeg_virtual
	{
		OFFSET 0.000000 0.000000 0.000000
		CHANNELS 3 Zrotation Yrotation Xrotation
		JOINT RightUpLeg
		{
			OFFSET -10.205400 -3.823500 0.005500
			CHANNELS 3 Zrotation Yrotation Xrotation
			JOINT RightLeg
			{
				OFFSET -0.708756 -12.982134 0.610632
				CHANNELS 3 Zrotation Yrotation Xrotation
				JOINT RightFoot
				{
					OFFSET 0.708754 -10.717769 -1.945823
					CHANNELS 3 Zrotation Yrotation Xrotation
					JOINT RightToeBase
					{
						OFFSET -0.108140 -7.191069 7.372968
						CHANNELS 3 Zrotation Yrotation Xrotation
						End Site
						{
							OFFSET 0.000000 0.000000 0.000000
						}
					}
				}
			}
		}
	}
	JOINT Spine_virtual
	{
		OFFSET 0.000000 0.000000 0.000000
		CHANNELS 3 Zrotation Yrotation Xrotation
		JOINT Spine
		{
			OFFSET 0.000000 6.876099 0.125700
			CHANNELS 3 Zrotation Yrotation Xrotation
			JOINT Spine1
			{
				OFFSET 0.000000 8.022060 0.146608
				CHANNELS 3 Zrotation Yrotation Xrotation
				JOINT Spine2
				{
					OFFSET 0.000000 9.168068 0.167552
					CHANNELS 3 Zrotation Yrotation Xrotation
					JOINT Neck_virtual
					{
						OFFSET 0.000000 0.000000 0.000000
						CHANNELS 3 Zrotation Yrotation Xrotation
						JOINT Neck
						{
							OFFSET 0.000000 10.314075 0.188496
							CHANNELS 3 Zrotation Yrotation Xrotation
							JOINT Head
							{
								OFFSET 0.000000 7.643700 -2.377400
								CHANNELS 3 Zrotation Yrotation Xrotation
								End Site
								{
									OFFSET 0.000000 0.000000 0.000000
								}
							}
						}
					}
					JOINT LeftShoulder_virtual
					{
						OFFSET 0.000000 0.000000 0.000000
						CHANNELS 3 Zrotation Yrotation Xrotation
						JOINT LeftShoulder
						{
							OFFSET 4.392200 8.824978 0.174984
							CHANNELS 3 Zrotation Yrotation Xrotation
							JOINT LeftArm
							{
								OFFSET 8.771219 -2.981674 -0.026999
								CHANNELS 3 Zrotation Yrotation Xrotation
								JOINT LeftForeArm
								{
									OFFSET 8.512804 0.000000 -0.000000
									CHANNELS 3 Zrotation Yrotation Xrotation
									JOINT LeftHand
									{
										OFFSET 18.484802 0.000000 -0.000000
										CHANNELS 3 Zrotation Yrotation Xrotation
										End Site
										{
											OFFSET 0.000000 0.000000 0.000000
										}
									}
								}
							}
						}
					}
					JOINT RightShoulder_virtual
					{
						OFFSET 0.000000 0.000000 0.000000
						CHANNELS 3 Zrotation Yrotation Xrotation
						JOINT RightShoulder
						{
							OFFSET -4.392200 8.824993 0.141379
							CHANNELS 3 Zrotation Yrotation Xrotation
							JOINT RightArm
							{
								OFFSET -8.771282 -2.981682 -0.094208
								CHANNELS 3 Zrotation Yrotation Xrotation
								JOINT RightForeArm
								{
									OFFSET -8.494598 0.000000 0.000000
									CHANNELS 3 Zrotation Yrotation Xrotation
									JOINT RightHand
									{
										OFFSET -18.483803 0.000000 0.000001
										CHANNELS 3 Zrotation Yrotation Xrotation
										End Site
										{
											OFFSET 0.000000 0.000000 0.000000
										}
									}
								}
							}
						}
					}
				}
			}
		}
	}
}
MOTION
Frames: 7
Frame Time: 0.033333
-2.938022 35.945026 -7.662424 -179.932837 3.268985 -179.527452 -4.001112 -4.189564 10.748576 -8.950089 0.956259 -13.504139 17.889365 3.523046 20.168960 -0.974369 -4.083869 -0.879126 0.000000 0.000000 0.000000 2.192222 -1.331923 9.535081 0.078170 -1.357661 -9.818863 -8.607181 -1.002940 14.989011 8.664972 1.571008 2.133222 0.000000 0.000000 0.000000 1.101127 0.358956 -4.140897 -5.291771 2.061527 -7.702369 0.692003 -3.640936 2.708090 -0.032575 0.002836 0.038407 0.466757 -2.207567 5.723550 -0.288992 1.723367 15.310853 0.000000 0.000000 0.000000 2.092492 -1.338645 2.504894 -8.484201 2.350730 -8.822459 -0.351965 13.446573 -46.115310 -0.684066 -46.464640 -3.411082 0.000000 0.000000 0.000000 -1.646856 -0.600647 2.025746 19.087110 -5.030127 -16.680155 3.630613 -14.942492 -43.437029 -0.116648 29.435001 5.395139 0.000000 0.000000 0.000000 
-2.947931 35.938236 -7.677007 -179.835029 3.450044 -179.293955 -3.925180 -4.167301 10.878357 -8.513903 0.335007 -13.295271 18.101632 2.955385 19.582909 -1.142984 -4.269150 -1.237690 0.000000 0.000000 0.000000 2.683504 -1.557583 9.576970 -0.453541 -1.502161 -9.782733 -8.464877 -1.346653 15.074607 8.648760 1.380975 2.050655 0.000000 0.000000 0.000000 1.154792 0.390354 -4.242505 -5.266032 2.137262 -7.734668 0.719943 -3.610059 2.659079 0.011929 0.033985 0.077942 0.412090 -2.131191 5.712765 -0.329628 1.709334 15.304364 0.000000 0.000000 0.000000 2.021912 -1.337819 2.501618 -8.501312 2.325944 -8.987765 -0.393455 13.340762 -45.898202 -0.779507 -46.543228 -3.271710 0.000000 0.000000 0.000000 -1.728592 -0.621065 1.977193 19.082983 -5.064494 -16.464941 3.645240 -14.983295 -43.415254 -0.128388 29.565054 5.350436 0.000000 0.000000 0.000000 
-2.945675 35.934582 -7.687253 -179.903795 3.535239 -179.306399 -4.012003 -4.200425 10.890647 -8.544304 0.328602 -13.307873 18.128415 2.891554 19.722386 -1.081309 -4.190362 -1.294229 0.000000 0.000000 0.000000 2.582249 -1.665340 9.553670 -0.439749 -1.491168 -9.851854 -8.427952 -1.244386 15.163268 8.649545 1.450192 2.098396 0.000000 0.000000 0.000000 1.125125 0.253775 -4.128368 -5.282620 2.139849 -7.703810 0.702010 -3.560742 2.631627 0.000891 0.046729 0.071124 0.461199 -2.172720 5.719254 -0.338079 1.740700 15.337238 0.000000 0.000000 0.000000 2.056706 -1.356943 2.518132 -8.574386 2.246553 -8.814353 -0.378817 13.248032 -45.698719 -0.583621 -46.474547 -3.433205 0.000000 0.000000 0.000000 -1.665194 -0.599436 1.958564 19.124485 -5.033408 -16.390825 3.806517 -15.031558 -43.375041 -0.078929 29.707211 5.298073 0.000000 0.000000 0.000000 
-2.931813 35.930264 -7.690999 -179.863483 3.627533 -179.281401 -3.965616 -4.209831 10.925872 -8.569057 0.327388 -13.369143 18.125789 2.800157 19.819580 -0.989691 -4.077106 -1.372027 0.000000 0.000000 0.000000 2.527392 -1.697061 9.520357 -0.325385 -1.498742 -9.943849 -8.493368 -1.111406 15.234887 8.490619 1.676651 2.203235 0.000000 0.000000 0.000000 1.141238 0.272415 -4.019793 -5.232459 2.113136 -7.701765 0.706350 -3.579098 2.613430 0.015612 0.025504 0.050792 0.422023 -2.110959 5.727782 -0.400213 1.708878 15.311064 0.000000 0.000000 0.000000 2.034932 -1.307345 2.548703 -8.662465 2.183432 -8.759987 -0.458050 13.116097 -45.464399 -0.520714 -46.462662 -3.461308 0.000000 0.000000 0.000000 -1.698607 -0.574249 2.012873 19.169635 -5.035909 -16.468136 3.874357 -15.153813 -43.469107 0.129287 29.801461 5.346643 0.000000 0.000000 0.000000 
-2.922560 35.930256 -7.693230 -179.912729 3.768546 -179.273819 -4.058511 -4.137561 10.961710 -8.540449 0.369809 -13.457493 18.159571 2.727380 19.976956 -0.998946 -4.034432 -1.463532 0.000000 0.000000 0.000000 2.464479 -1.669252 9.527075 -0.353852 -1.543827 -10.021738 -8.361944 -1.028365 15.252586 8.477165 1.732478 2.219743 0.000000 0.000000 0.000000 1.097087 0.195073 -3.940030 -5.186413 2.008491 -7.711024 0.687530 -3.557929 2.646598 -0.005953 0.008584 0.042908 0.446137 -2.108963 5.733076 -0.393578 1.684157 15.339850 0.000000 0.000000 0.000000 2.073035 -1.183697 2.563389 -8.759031 2.172185 -8.690010 -0.411377 13.045703 -45.284141 -0.507174 -46.377261 -3.447557 0.000000 0.000000 0.000000 -1.630305 -0.457413 2.076029 19.269593 -4.919772 -16.525329 3.995093 -15.325961 -43.578243 0.316102 29.899952 5.384728 0.000000 0.000000 0.000000 
-2.923110 35.930382 -7.689717 -179.889411 3.944609 -179.280663 -4.080664 -4.044548 11.000028 -8.523011 0.383036 -13.535044 18.150799 2.646588 20.117047 -0.967536 -3.933468 -1.554708 0.000000 0.000000 0.000000 2.424185 -1.606435 9.550610 -0.306675 -1.549244 -10.073126 -8.335901 -0.895207 15.185343 8.412411 1.747749 2.278306 0.000000 0.000000 0.000000 1.035485 0.266339 -3.837919 -5.104249 1.895107 -7.746823 0.686571 -3.532147 2.655834 0.014860 -0.004613 0.025971 0.388206 -1.989881 5.848765 -0.389307 1.595398 15.436907 0.000000 0.000000 0.000000 2.020583 -1.119210 2.637438 -8.858173 2.118059 -8.527957 -0.591888 12.998511 -45.251134 -0.368953 -46.264959 -3.543010 0.000000 0.000000 0.000000 -1.679688 -0.418078 2.175705 19.423842 -4.960190 -16.613100 4.085213 -15.456470 -43.617868 0.460158 30.001517 5.347475 0.000000 0.000000 0.000000 
-2.925356 35.933250 -7.677514 -179.864877 4.179026 -179.271251 -4.152971 -3.871553 10.953425 -8.440580 0.391934 -13.613504 18.203392 2.560764 20.339076 -0.988910 -3.849535 -1.611506 0.000000 0.000000 0.000000 2.416470 -1.513063 9.524259 -0.298183 -1.566345 -10.109537 -8.337433 -0.849736 15.092736 8.613779 1.715048 2.316770 0.000000 0.000000 0.000000 0.983765 0.357540 -3.765678 -5.010394 1.857410 -7.782475 0.688920 -3.423354 2.696762 0.014925 0.053725 0.055026 0.331558 -1.907223 5.845670 -0.425809 1.412315 15.528749 0.000000 0.000000 0.000000 2.014865 -1.139786 2.720347 -8.971704 1.948709 -8.687994 -0.763184 12.936317 -45.203913 -0.296489 -46.194704 -3.583726 0.000000 0.000000 0.000000 -1.716499 -0.419378 2.161590 19.605800 -5.119675 -16.388154 4.295607 -15.645055 -44.169129 0.613114 30.083882 5.345233 0.000000 0.000000 0.000000 
